<?xml version="1.0" standalone="no"?>
<!DOCTYPE svg PUBLIC "-//W3C//DTD SVG 20010904//EN"
 "http://www.w3.org/TR/2001/REC-SVG-20010904/DTD/svg10.dtd">
<svg version="1.0" xmlns="http://www.w3.org/2000/svg"
 width="300.000000pt" height="300.000000pt" viewBox="0 0 300.000000 300.000000"
 preserveAspectRatio="xMidYMid meet">

<g transform="translate(0.000000,300.000000) scale(0.100000,-0.100000)"
fill="#000000" stroke="none">
<path d="M1376 2804 c-252 -46 -490 -175 -671 -365 -144 -151 -243 -329 -297
-537 -29 -107 -31 -131 -32 -287 -1 -178 12 -268 56 -400 172 -515 668 -856
1208 -831 312 14 575 125 793 336 112 107 172 187 241 320 176 341 184 742 21
1085 -170 358 -505 611 -902 680 -106 19 -311 18 -417 -1z m489 -104 c390
-105 681 -377 803 -750 88 -268 62 -592 -67 -848 -275 -543 -934 -774 -1477
-518 -320 152 -535 410 -625 754 -29 111 -37 337 -15 460 81 468 438 827 911
918 108 21 368 12 470 -16z"/>
<path d="M1439 2485 c-3 -14 66 -954 70 -962 1 0 21 -13 46 -28 54 -31 122
-124 196 -268 39 -76 48 -102 38 -105 -8 -3 -32 -23 -54 -46 -82 -85 -86 -205
-9 -295 122 -142 337 -57 337 134 -1 28 -8 69 -18 93 -20 48 -83 108 -125 117
-22 5 -42 28 -89 98 -125 190 -167 319 -275 842 -62 300 -86 402 -101 422 -12
16 -13 16 -16 -2z m181 -899 c0 -29 -28 -42 -48 -22 -20 20 -8 46 23 46 20 0
25 -5 25 -24z m324 -539 c33 -23 66 -89 66 -132 0 -47 -35 -112 -69 -129 -16
-9 -50 -16 -75 -16 -100 0 -166 120 -122 223 34 81 125 106 200 54z"/>
<path d="M1707 2433 c-8 -38 -36 -166 -62 -285 l-47 -217 37 -163 c38 -168 54
-216 55 -165 0 15 7 119 15 230 26 344 44 651 39 659 -13 20 -24 3 -37 -59z"/>
<path d="M724 1879 c-36 -40 -20 -361 21 -415 28 -36 35 3 34 176 0 102 3 166
9 168 7 2 12 -58 14 -165 3 -160 10 -205 28 -186 5 4 12 86 16 181 5 134 10
172 20 172 11 0 14 -30 14 -149 0 -160 6 -214 24 -208 10 3 21 131 25 300 1
42 5 57 15 57 12 0 15 -31 18 -174 2 -96 7 -178 11 -182 16 -16 27 22 27 97 0
145 12 259 26 259 11 0 14 -34 14 -167 0 -157 8 -209 27 -189 4 4 9 86 11 182
3 164 4 174 23 174 18 0 19 -9 19 -174 0 -163 7 -206 27 -174 4 7 9 88 11 181
4 156 6 167 23 167 18 0 19 -10 19 -174 0 -161 7 -206 26 -175 4 7 9 88 12
181 8 269 42 198 42 -89 0 -84 9 -119 25 -93 3 5 9 86 12 180 5 133 9 170 20
170 10 0 13 -34 13 -167 0 -165 8 -216 30 -183 5 8 11 69 12 135 1 66 3 131 4
145 1 14 3 35 3 48 1 12 7 22 16 22 13 0 15 -25 15 -167 0 -157 8 -209 27
-189 9 8 20 321 15 398 l-4 48 -362 0 c-356 0 -363 0 -382 -21z"/>
<path d="M1716 1839 c-8 -78 -8 -337 0 -367 4 -13 12 -21 18 -19 10 3 20 129
25 315 1 29 5 42 15 42 12 0 15 -31 18 -174 2 -96 7 -178 11 -182 17 -17 27
24 27 112 0 146 11 244 26 244 11 0 14 -34 14 -174 0 -172 8 -218 30 -161 6
14 10 96 10 181 0 147 1 154 20 154 19 0 20 -7 20 -174 0 -160 7 -206 25 -175
4 6 10 87 13 180 4 149 7 170 21 167 14 -3 17 -28 21 -176 3 -102 9 -173 15
-175 13 -3 22 95 24 241 1 92 4 112 16 112 12 0 15 -15 15 -77 0 -119 8 -262
16 -274 14 -23 24 18 24 101 0 146 11 250 26 250 11 0 14 -34 14 -167 0 -165
8 -216 30 -183 5 8 10 83 10 167 0 159 3 183 26 183 11 0 14 -31 14 -167 0
-157 8 -209 27 -189 4 4 9 86 11 182 3 164 4 174 23 174 18 0 19 -9 19 -174 0
-100 4 -177 9 -181 22 -13 31 41 31 194 0 136 2 161 15 161 13 0 15 -27 15
-180 0 -182 6 -207 34 -152 38 75 53 349 22 398 l-16 24 -364 0 -363 0 -7 -61z"/>
<path d="M1497 1502 c-3 -4 -10 -25 -17 -47 -18 -58 -75 -168 -132 -256 -37
-58 -55 -78 -76 -82 -39 -8 -78 -41 -109 -94 -55 -94 -29 -220 59 -283 34 -25
50 -30 100 -30 70 0 102 15 151 69 73 81 75 197 4 278 -18 20 -44 44 -59 52
l-26 17 57 116 c32 64 74 139 95 168 21 29 36 53 34 54 -29 20 -78 43 -81 38z
m-99 -446 c36 -19 72 -84 72 -132 0 -63 -36 -123 -88 -146 -75 -33 -139 -9
-173 66 -24 52 -23 90 1 143 33 73 120 104 188 69z"/>
</g>
</svg>
