<?xml version="1.0" standalone="no"?>
<!DOCTYPE svg PUBLIC "-//W3C//DTD SVG 20010904//EN"
 "http://www.w3.org/TR/2001/REC-SVG-20010904/DTD/svg10.dtd">
<svg version="1.0" xmlns="http://www.w3.org/2000/svg"
 width="512.000000pt" height="512.000000pt" viewBox="0 0 512.000000 512.000000"
 preserveAspectRatio="xMidYMid meet">

<g transform="translate(0.000000,512.000000) scale(0.100000,-0.100000)"
fill="#000000" stroke="none">
<path d="M2753 3890 l-420 -1031 58 -139 c33 -76 59 -147 58 -157 0 -10 -33
-94 -72 -188 l-73 -170 -839 -430 c-769 -394 -839 -432 -846 -459 -5 -17 -3
-43 5 -67 25 -73 349 -669 363 -669 24 0 73 56 73 83 0 14 -54 131 -120 260
l-121 236 42 21 c22 12 42 20 44 18 2 -2 58 -111 126 -243 67 -132 124 -242
126 -244 2 -3 19 3 39 12 l35 17 -125 247 c-69 135 -126 248 -126 249 0 2 13
10 29 19 l30 15 126 -249 127 -250 34 17 c19 8 34 19 34 23 0 5 -56 118 -126
253 -123 242 -125 245 -103 257 30 15 27 19 165 -253 63 -126 120 -228 125
-228 6 0 23 7 39 15 l29 15 -111 217 c-61 120 -119 233 -129 250 l-18 33 30
16 c17 8 32 14 33 12 2 -2 58 -111 125 -243 68 -132 125 -242 127 -244 2 -3
20 3 40 12 l35 17 -125 244 c-69 134 -126 246 -126 250 0 3 13 12 29 21 l30
15 127 -249 127 -249 33 16 c19 8 34 19 34 24 0 4 -57 118 -126 252 l-125 245
30 15 30 16 126 -245 126 -244 -32 -93 c-26 -75 -33 -113 -37 -198 -7 -172 36
-296 145 -411 208 -221 530 -212 764 22 63 62 85 93 122 170 57 118 71 179 71
299 0 118 -17 177 -93 325 -32 62 -73 153 -90 201 -31 84 -31 89 -14 101 17
13 15 18 -24 96 -37 75 -48 116 -68 252 -4 31 14 3 85 -132 l91 -173 32 16
c18 9 34 18 35 19 2 2 -53 114 -123 250 -70 135 -126 248 -124 249 17 15 53
26 59 19 4 -4 62 -115 130 -245 67 -131 124 -238 126 -238 11 0 64 31 64 37 0
3 -56 116 -126 251 -69 134 -124 245 -122 247 2 1 13 7 25 14 20 10 26 2 116
-172 52 -100 109 -211 127 -247 18 -36 34 -66 35 -68 6 -7 65 29 65 40 0 6
-55 119 -122 250 -118 230 -122 240 -104 254 11 8 25 14 31 14 7 0 60 -96 120
-213 59 -116 116 -227 127 -244 19 -33 20 -33 51 -17 18 9 33 17 35 19 1 1
-54 111 -123 244 -69 134 -125 246 -125 251 0 11 52 32 61 23 4 -4 62 -115
129 -245 67 -131 124 -238 126 -238 11 0 64 31 64 37 0 3 -56 116 -125 250
l-124 243 28 15 c29 15 29 14 54 -28 13 -23 70 -133 127 -244 56 -112 106
-203 111 -203 6 0 23 7 39 15 l29 15 -111 217 c-61 120 -119 233 -129 250
l-18 33 29 15 c28 15 28 14 53 -28 13 -23 70 -133 126 -244 56 -112 107 -203
112 -203 5 0 23 7 39 15 l29 15 -126 246 c-119 232 -125 248 -108 261 11 7 25
13 32 13 7 0 34 -42 59 -92 25 -51 82 -162 126 -245 l79 -153 32 16 c18 9 34
18 35 20 2 1 -53 113 -122 247 -69 134 -126 247 -126 249 0 7 60 32 64 27 1
-2 58 -112 125 -243 67 -132 123 -242 125 -244 7 -6 66 28 66 38 0 5 -56 120
-125 254 l-125 243 30 13 c17 7 32 11 34 9 2 -2 58 -112 126 -244 68 -132 124
-241 125 -243 2 -2 19 5 39 14 l36 18 -125 242 c-69 134 -125 247 -125 252 0
13 52 34 61 25 4 -4 62 -115 129 -245 67 -131 124 -238 126 -238 11 0 64 31
64 37 0 3 -56 116 -125 250 l-124 243 28 15 c29 15 29 14 54 -28 13 -23 70
-133 127 -244 56 -112 106 -203 111 -203 6 0 23 7 39 15 l29 15 -127 250
c-106 209 -125 252 -112 260 8 5 20 10 27 10 6 0 64 -105 128 -232 65 -128
122 -239 127 -245 8 -10 17 -9 42 4 17 8 32 16 33 18 2 1 -53 112 -122 246
-69 134 -125 247 -125 250 0 5 45 29 55 29 2 0 58 -107 125 -237 67 -131 125
-242 130 -246 7 -8 70 18 70 29 0 3 -56 115 -126 249 l-125 244 31 16 c18 9
33 15 34 13 2 -2 58 -112 126 -245 68 -134 127 -243 132 -243 5 0 22 7 38 15
l30 15 -125 244 c-69 133 -125 247 -125 253 0 9 50 37 55 31 1 -2 57 -111 125
-243 68 -132 125 -242 127 -244 2 -3 19 3 39 12 l35 17 -125 244 c-69 134
-126 246 -126 250 0 3 13 12 29 21 l30 15 128 -249 127 -249 33 16 c18 9 33
20 33 25 0 5 -56 119 -125 253 l-126 243 31 16 c17 9 36 15 42 13 6 -2 63
-105 127 -228 126 -242 146 -267 203 -256 18 3 39 10 46 14 9 6 -28 90 -145
328 -183 370 -193 388 -233 404 -28 12 -38 8 -148 -48 -738 -377 -1791 -917
-1881 -963 -103 -54 -113 -57 -108 -37 3 13 66 264 140 558 248 986 460 1865
459 1906 -4 118 -4 118 -439 -946z m-185 -961 c72 -25 76 -130 7 -163 -41 -20
-75 -13 -106 20 -42 45 -23 120 36 145 27 11 28 11 63 -2z m-482 -1161 c14
-27 14 -37 3 -70 -6 -21 -15 -38 -19 -38 -3 0 -18 25 -33 55 l-27 55 28 14
c15 9 28 15 29 16 1 0 10 -14 19 -32z m-101 -128 c39 -78 43 -92 33 -115 -6
-14 -14 -25 -17 -25 -3 0 -30 46 -59 101 -51 95 -53 101 -35 114 10 8 21 15
25 15 4 0 28 -40 53 -90z m-42 -291 l-18 -41 -83 160 c-45 87 -82 162 -82 165
0 4 12 13 27 21 l27 14 73 -139 73 -140 -17 -40z m-159 57 c83 -164 97 -198
90 -220 -5 -14 -13 -27 -17 -29 -5 -1 -57 92 -115 206 -103 200 -106 208 -88
222 11 8 22 15 25 15 3 0 50 -88 105 -194z m668 -222 c67 -22 140 -91 179
-170 75 -151 37 -365 -88 -504 -82 -92 -185 -141 -293 -142 -171 0 -299 114
-330 294 -33 191 79 415 252 501 94 48 177 54 280 21z"/>
<path d="M3641 3405 c-431 -178 -787 -327 -791 -332 -8 -8 -111 -405 -106
-410 1 -1 401 233 888 521 488 288 895 529 905 535 14 8 3 10 -47 10 -62 -1
-104 -17 -849 -324z"/>
<path d="M555 2821 c-358 -59 -616 -407 -540 -729 22 -93 60 -159 134 -233
108 -108 220 -153 381 -152 117 1 171 13 275 62 68 32 1494 869 1519 891 4 5
-7 45 -25 90 -25 60 -37 80 -49 76 -8 -3 -65 -26 -127 -51 -210 -86 -464 -124
-706 -105 -204 15 -389 53 -522 105 -33 13 -78 28 -100 34 -57 15 -181 21
-240 12z m249 -199 c27 -12 68 -38 90 -56 127 -103 142 -316 35 -472 -180
-263 -577 -287 -709 -43 -33 60 -35 69 -35 160 0 90 2 99 38 171 59 119 159
204 297 250 77 25 216 20 284 -10z"/>
</g>
</svg>
