<?xml version="1.0" standalone="no"?>
<!DOCTYPE svg PUBLIC "-//W3C//DTD SVG 20010904//EN"
 "http://www.w3.org/TR/2001/REC-SVG-20010904/DTD/svg10.dtd">
<svg version="1.0" xmlns="http://www.w3.org/2000/svg"
 width="512.000000pt" height="512.000000pt" viewBox="0 0 512.000000 512.000000"
 preserveAspectRatio="xMidYMid meet">

<g transform="translate(0.000000,512.000000) scale(0.100000,-0.100000)"
fill="#000000" stroke="none">
<path d="M1755 4269 c-151 -22 -322 -89 -459 -181 -79 -54 -211 -186 -265
-267 -95 -141 -157 -302 -180 -465 -15 -105 -15 -1487 0 -1592 32 -235 136
-442 303 -610 167 -167 376 -271 610 -303 105 -15 1487 -15 1592 0 235 32 442
136 610 303 134 135 229 300 281 491 l28 100 0 815 0 815 -27 100 c-118 428
-462 734 -892 794 -94 13 -1511 13 -1601 0z m1629 -393 c251 -75 423 -248 493
-496 17 -60 18 -120 18 -820 0 -701 -1 -760 -18 -819 -71 -251 -248 -428 -497
-498 -60 -17 -120 -18 -820 -18 -699 0 -760 1 -820 18 -203 57 -375 201 -454
380 -61 138 -59 109 -63 876 -3 441 0 735 6 788 20 163 81 292 192 403 106
108 249 180 394 200 33 4 386 7 785 6 656 -2 731 -4 784 -20z"/>
<path d="M3430 3629 c-127 -51 -125 -230 3 -278 43 -16 78 -13 121 12 103 59
100 201 -4 255 -47 24 -80 27 -120 11z"/>
<path d="M2433 3431 c-82 -13 -191 -50 -274 -91 -213 -108 -371 -301 -445
-547 -24 -78 -27 -105 -27 -233 0 -128 3 -155 27 -233 93 -307 310 -524 611
-612 401 -116 838 81 1021 460 69 142 87 224 87 390 0 122 -3 151 -27 228 -93
308 -309 524 -613 612 -97 29 -267 40 -360 26z m278 -361 c227 -70 378 -270
379 -500 0 -155 -50 -280 -155 -385 -167 -167 -420 -204 -628 -92 -266 141
-358 481 -202 742 68 112 162 187 294 232 88 30 222 31 312 3z"/>
</g>
</svg>
