<?xml version="1.0" standalone="no"?>
<!DOCTYPE svg PUBLIC "-//W3C//DTD SVG 20010904//EN"
 "http://www.w3.org/TR/2001/REC-SVG-20010904/DTD/svg10.dtd">
<svg version="1.0" xmlns="http://www.w3.org/2000/svg"
 width="512.000000pt" height="512.000000pt" viewBox="0 0 512.000000 512.000000"
 preserveAspectRatio="xMidYMid meet">

<g transform="translate(0.000000,512.000000) scale(0.100000,-0.100000)"
fill="#000000" stroke="none">
<path d="M1894 5096 c-88 -41 -150 -136 -142 -219 3 -28 7 -32 35 -35 28 -3
33 0 39 25 21 97 58 145 124 163 24 6 185 9 436 8 l399 -3 3 -102 3 -103 -75
0 c-109 0 -106 6 -106 -216 l0 -184 -100 0 c-114 0 -159 -14 -187 -56 -16 -24
-19 -57 -23 -254 l-5 -225 -75 -6 c-85 -6 -124 -23 -167 -73 -62 -69 -58 48
-58 -1876 0 -1713 1 -1766 19 -1803 22 -45 66 -91 110 -115 29 -16 120 -17
1331 -17 1257 0 1302 1 1350 19 65 25 137 94 166 159 l24 52 3 676 c3 666 2
677 -18 732 -26 68 -92 140 -158 170 -46 22 -58 22 -602 27 l-555 5 -5 946 -5
946 -30 48 c-42 68 -113 105 -201 105 l-64 0 0 219 c0 210 -1 219 -23 252 -36
55 -76 69 -194 69 l-103 0 0 190 c0 220 5 210 -104 210 l-66 0 0 105 0 104
118 3 c114 3 117 4 120 26 8 54 25 52 -592 52 l-571 0 -51 -24z m1066 -511 l0
-155 -130 0 -130 0 0 155 0 155 130 0 130 0 0 -155z m304 -267 c13 -19 16 -58
16 -225 l0 -203 -450 0 -450 0 0 206 c0 122 4 213 10 225 10 18 26 19 435 19
l424 0 15 -22z m252 -535 c67 -48 64 7 64 -1017 l0 -926 -257 0 -258 0 -60
-29 c-73 -35 -115 -78 -149 -151 l-26 -55 0 -675 c0 -421 4 -689 10 -711 6
-20 24 -56 40 -80 16 -24 30 -48 30 -52 0 -4 -163 -7 -362 -5 -344 3 -365 4
-398 23 -19 12 -43 36 -52 55 -17 33 -18 139 -18 1791 l0 1756 23 34 c48 72
17 70 737 67 l645 -3 31 -22z m1264 -2044 c56 -25 86 -53 113 -104 18 -34 22
-62 25 -182 l4 -143 -1006 0 -1006 0 0 128 c0 151 13 202 68 255 70 68 29 66
937 66 805 1 821 0 865 -20z m138 -1001 c-3 -534 -2 -520 -69 -587 -69 -69
-19 -66 -897 -69 -520 -2 -813 1 -850 8 -73 13 -130 54 -162 116 l-25 48 -3
483 -3 483 1006 0 1006 0 -3 -482z"/>
<path d="M2342 3198 c-9 -9 -12 -154 -12 -590 0 -561 1 -578 19 -588 13 -6
183 -10 485 -10 409 0 466 2 480 16 14 14 16 81 16 588 0 431 -3 575 -12 584
-17 17 -959 17 -976 0z m906 -585 l2 -513 -420 0 -420 0 0 515 0 515 418 -2
417 -3 3 -512z"/>
<path d="M4105 1554 c-9 -9 -15 -24 -13 -32 7 -38 44 -42 306 -40 238 3 255 4
268 22 18 25 18 31 -2 50 -13 14 -53 16 -279 16 -230 0 -266 -2 -280 -16z"/>
<path d="M3168 999 c-17 -9 -18 -34 -18 -287 0 -203 3 -281 12 -290 9 -9 190
-12 755 -12 724 0 743 0 753 19 6 12 10 121 10 284 0 243 -1 265 -18 280 -17
16 -83 17 -748 17 -476 -1 -735 -4 -746 -11z m1422 -294 l0 -215 -680 0 -680
0 0 215 0 215 680 0 680 0 0 -215z"/>
<path d="M405 4001 c-71 -43 -69 -37 -75 -313 l-5 -249 -53 -18 c-65 -22 -98
-52 -128 -116 l-24 -50 0 -1530 c0 -1063 3 -1542 11 -1569 14 -51 91 -128 145
-144 31 -9 206 -12 685 -12 627 0 645 1 689 21 56 25 86 53 113 104 l22 40 0
1555 0 1555 -28 47 c-31 54 -71 86 -130 103 l-42 12 -5 246 c-5 228 -6 248
-26 274 -47 64 -36 63 -604 63 -484 0 -517 -1 -545 -19z m135 -316 l0 -245
-60 0 -60 0 0 233 c0 168 3 236 12 245 7 7 34 12 60 12 l48 0 0 -245z m250 0
l0 -245 -80 0 -80 0 0 245 0 245 80 0 80 0 0 -245z m240 0 l0 -245 -80 0 -80
0 0 245 0 245 80 0 80 0 0 -245z m250 0 l0 -245 -80 0 -80 0 0 245 0 245 80 0
80 0 0 -245z m198 233 c9 -9 12 -77 12 -245 l0 -233 -60 0 -60 0 0 245 0 245
48 0 c26 0 53 -5 60 -12z m159 -588 c68 -41 63 81 63 -1610 0 -1687 5 -1564
-62 -1612 l-33 -23 -652 0 c-642 0 -652 0 -679 21 -15 11 -37 33 -48 48 -21
27 -21 30 -24 1554 -2 1439 -1 1529 15 1562 10 19 33 45 52 57 l34 23 651 0
c628 0 652 -1 683 -20z"/>
<path d="M460 2781 c-6 -13 -10 -214 -10 -585 l0 -565 22 -15 c20 -14 82 -16
481 -16 297 0 465 4 478 10 18 10 19 28 19 594 0 523 -2 584 -16 590 -9 3
-229 6 -489 6 -459 0 -475 -1 -485 -19z m910 -576 l0 -515 -415 0 -415 0 0
515 0 515 415 0 415 0 0 -515z"/>
<path d="M345 1228 c-3 -13 -4 -131 -3 -262 3 -215 5 -240 21 -250 12 -8 22
-8 35 0 15 10 17 35 20 250 1 131 0 249 -3 262 -4 17 -13 22 -35 22 -22 0 -31
-5 -35 -22z"/>
<path d="M351 546 c-8 -9 -11 -47 -9 -106 2 -76 6 -95 21 -104 12 -8 22 -8 35
0 14 9 18 28 20 104 3 96 -5 120 -38 120 -10 0 -23 -6 -29 -14z"/>
</g>
</svg>
