<?xml version="1.0" standalone="no"?>
<!DOCTYPE svg PUBLIC "-//W3C//DTD SVG 20010904//EN"
 "http://www.w3.org/TR/2001/REC-SVG-20010904/DTD/svg10.dtd">
<svg version="1.0" xmlns="http://www.w3.org/2000/svg"
 width="256.000000pt" height="256.000000pt" viewBox="0 0 256.000000 256.000000"
 preserveAspectRatio="xMidYMid meet">

<g transform="translate(0.000000,256.000000) scale(0.100000,-0.100000)"
fill="#000000" stroke="none">
<path d="M903 1980 c-17 -10 -37 -28 -43 -39 -10 -19 -6 -23 45 -46 78 -34 94
-73 102 -238 9 -209 -18 -345 -71 -355 -67 -13 -246 238 -361 508 -20 47 -50
97 -66 113 l-29 27 -224 0 c-299 0 -293 7 -189 -215 201 -430 442 -796 626
-954 74 -63 131 -100 220 -141 130 -60 198 -73 380 -74 153 -1 159 0 177 22
11 13 21 47 25 80 16 147 47 215 103 220 47 5 83 -22 205 -152 60 -64 129
-128 155 -143 l47 -28 251 -3 c237 -3 252 -2 275 17 19 15 24 29 24 64 0 66
-70 162 -251 343 -163 163 -177 185 -151 245 8 19 61 97 118 174 198 265 248
344 279 438 16 50 7 80 -27 97 -41 20 -452 27 -508 8 -44 -14 -33 4 -154 -248
-72 -150 -134 -247 -216 -338 -40 -45 -53 -53 -78 -50 -19 2 -38 13 -51 31
-20 27 -21 44 -26 310 -5 293 -8 315 -50 337 -11 6 -115 10 -262 10 -223 0
-246 -2 -275 -20z"/>
</g>
</svg>
