<?xml version="1.0" standalone="no"?>
<!DOCTYPE svg PUBLIC "-//W3C//DTD SVG 20010904//EN"
 "http://www.w3.org/TR/2001/REC-SVG-20010904/DTD/svg10.dtd">
<svg version="1.0" xmlns="http://www.w3.org/2000/svg"
 width="512.000000pt" height="512.000000pt" viewBox="0 0 512.000000 512.000000"
 preserveAspectRatio="xMidYMid meet">

<g transform="translate(0.000000,512.000000) scale(0.100000,-0.100000)"
fill="#000000" stroke="none">
<path d="M2425 4380 c-333 -27 -663 -157 -930 -365 -103 -81 -256 -238 -333
-343 -390 -529 -455 -1238 -169 -1837 l53 -110 -122 -450 c-67 -247 -118 -451
-114 -453 4 -2 211 51 459 118 l451 120 94 -44 c116 -56 272 -108 407 -138 91
-19 134 -22 334 -23 205 0 242 3 340 24 367 78 680 251 930 512 519 544 642
1341 307 2004 -157 312 -430 600 -730 769 -290 164 -645 242 -977 216z m250
-300 c335 -28 628 -160 872 -394 247 -236 408 -530 458 -838 19 -121 19 -360
0 -474 -52 -304 -192 -573 -414 -794 -262 -261 -561 -400 -921 -429 -293 -24
-611 51 -852 199 l-50 31 -265 -71 c-146 -39 -269 -69 -273 -68 -4 2 25 123
64 269 l72 266 -52 87 c-247 413 -269 950 -58 1392 138 291 409 561 696 693
157 73 323 118 483 131 49 4 97 8 105 8 8 1 69 -3 135 -8z"/>
<path d="M1871 3411 c-45 -24 -118 -112 -152 -186 -89 -188 -52 -397 111 -642
109 -165 189 -260 327 -393 140 -136 263 -222 416 -295 299 -141 487 -166 652
-84 76 37 150 100 174 148 26 51 43 137 39 196 l-3 50 -165 82 c-268 133 -273
134 -325 61 -16 -24 -56 -73 -88 -110 -69 -81 -79 -83 -179 -32 -146 73 -252
147 -344 239 -91 90 -214 261 -214 297 0 10 18 38 40 62 44 47 110 152 110
174 0 28 -154 395 -178 423 -23 28 -28 29 -105 29 -59 -1 -91 -6 -116 -19z"/>
</g>
</svg>
